<svg width="48" height="48" viewBox="0 0 48 48" fill="none" xmlns="http://www.w3.org/2000/svg">
<path fill-rule="evenodd" clip-rule="evenodd" d="M10 30V37C10 37.5523 10.4477 38 11 38H37C37.5523 38 38 37.5523 38 37V30H40V37C40 38.6569 38.6569 40 37 40H11C9.34315 40 8 38.6569 8 37V30H10Z" fill="white"/>
<path fill-rule="evenodd" clip-rule="evenodd" d="M25.0513 31.9744L37 20.0256L35.6343 18.6599L25.0513 29.2429L25.0513 8L23.0513 8L23.0513 29.2942L12.417 18.6599L11.0513 20.0256L24.0256 33L25.0256 32L25.0513 32L25.0513 31.9744Z" fill="white"/>
</svg>
