<svg width="28" height="28" viewBox="0 0 28 28" fill="none" xmlns="http://www.w3.org/2000/svg">
<g filter="url(#filter0_d)">
<path d="M24 12C24 17.5228 19.5228 22 14 22C8.47715 22 4 17.5228 4 12C4 6.47715 8.47715 2 14 2C19.5228 2 24 6.47715 24 12Z" fill="#A6A8AB"/>
</g>
<path d="M18 13.9085C18 14.6738 17.7355 15.3376 17.2066 15.9C16.6865 16.4532 15.9284 16.8082 14.9322 16.9649V18.5H13.3455V17.0202C12.6843 16.9741 12.0584 16.8589 11.4678 16.6745C10.8771 16.4809 10.3879 16.2457 10 15.9691L10.8595 13.95C11.2738 14.2358 11.7543 14.4663 12.3008 14.6415C12.8474 14.8167 13.3851 14.9043 13.914 14.9043C14.919 14.9043 15.4215 14.6415 15.4215 14.116C15.4215 13.8394 15.276 13.6365 14.9851 13.5074C14.703 13.3691 14.2446 13.2262 13.6099 13.0787C12.9135 12.922 12.3317 12.756 11.8645 12.5809C11.3972 12.3965 10.9961 12.106 10.6612 11.7096C10.3262 11.3131 10.1587 10.7784 10.1587 10.1053C10.1587 9.31241 10.432 8.63475 10.9785 8.07234C11.5251 7.50071 12.314 7.15035 13.3455 7.02128V5.5H14.9322V6.99362C15.4347 7.03972 15.9152 7.13192 16.3736 7.27021C16.8408 7.40851 17.2551 7.5883 17.6165 7.80957L16.8099 9.84255C15.9284 9.34468 15.0733 9.09575 14.2446 9.09575C13.7245 9.09575 13.3455 9.17872 13.1074 9.34468C12.8694 9.50142 12.7504 9.70887 12.7504 9.96702C12.7504 10.2252 12.8915 10.4188 13.1736 10.5479C13.4556 10.677 13.9096 10.8106 14.5355 10.9489C15.2408 11.1057 15.8226 11.2762 16.281 11.4606C16.7482 11.6358 17.1493 11.9216 17.4843 12.3181C17.8281 12.7053 18 13.2355 18 13.9085Z" fill="white"/>
<defs>
<filter id="filter0_d" x="0" y="0" width="28" height="28" filterUnits="userSpaceOnUse" color-interpolation-filters="sRGB">
<feFlood flood-opacity="0" result="BackgroundImageFix"/>
<feColorMatrix in="SourceAlpha" type="matrix" values="0 0 0 0 0 0 0 0 0 0 0 0 0 0 0 0 0 0 127 0" result="hardAlpha"/>
<feOffset dy="2"/>
<feGaussianBlur stdDeviation="2"/>
<feColorMatrix type="matrix" values="0 0 0 0 0.866667 0 0 0 0 0.737255 0 0 0 0 0.384314 0 0 0 0.25 0"/>
<feBlend mode="normal" in2="BackgroundImageFix" result="effect1_dropShadow"/>
<feBlend mode="normal" in="SourceGraphic" in2="effect1_dropShadow" result="shape"/>
</filter>
</defs>
</svg>
