<svg width="24" height="24" viewBox="0 0 24 24" fill="none" xmlns="http://www.w3.org/2000/svg">
<path fill-rule="evenodd" clip-rule="evenodd" d="M2 12C2 15.866 5.13401 19 9 19C12.1704 19 14.8506 16.8909 15.7106 14H17.777C17.7383 14.1703 17.6949 14.3387 17.6467 14.5051L16.5564 15.7194L17.0162 16.0956C15.5257 19.0072 12.4956 21 9 21C4.02944 21 0 16.9706 0 12C0 7.02944 4.02944 3 9 3C12.4956 3 15.5257 4.99283 17.0162 7.90436L16.5564 8.28061L17.6467 9.49486C17.6949 9.6613 17.7383 9.82974 17.777 10H15.7106C14.8506 7.10906 12.1704 5 9 5C5.13401 5 2 8.13401 2 12ZM11.8293 13C11.4175 14.1652 10.3062 15 9 15C7.34315 15 6 13.6569 6 12C6 10.3431 7.34315 9 9 9C10.3062 9 11.4175 9.83481 11.8293 11H20.3424L18 8.39153L19.5909 7.08995L24 12L19.5909 16.91L18 15.6085L20.3424 13H11.8293Z" fill="white"/>
</svg>
