<svg width="24" height="24" viewBox="0 0 24 24" fill="none" xmlns="http://www.w3.org/2000/svg">
<g clip-path="url(#clip0)">
<path fill-rule="evenodd" clip-rule="evenodd" d="M8.26893 13.9279L8.26893 13.9278L6.755 15.6138L6.75501 15.6138L8.26893 13.9279ZM8.6656 14.9828C9.78554 17.357 12.201 19 15.0001 19C18.5683 19 21.5155 16.3285 21.9458 12.8775C21.9816 12.5909 22.0001 12.2981 22.0001 12C22.0001 11.7019 21.9816 11.4091 21.9458 11.1225C21.5155 7.6715 18.5683 5 15.0001 5C12.201 5 9.78554 6.64297 8.6656 9.01717L7.24319 7.43316C8.80862 4.77996 11.6965 3 15.0001 3C19.5897 3 23.3769 6.4354 23.9305 10.875C23.9764 11.2435 24.0001 11.619 24.0001 12C24.0001 12.381 23.9764 12.7565 23.9305 13.125C23.3769 17.5646 19.5897 21 15.0001 21C11.6965 21 8.80862 19.22 7.24319 16.5668L8.6656 14.9828ZM6.75501 8.38622L8.26893 10.0722L6.755 8.38624L6.75501 8.38622ZM10 12L5.59086 7.08995L4 8.39153L6.34236 11H0V13H6.34235L4 15.6085L5.59086 16.91L10 12ZM15 15C16.6569 15 18 13.6569 18 12C18 10.3431 16.6569 9 15 9C13.3431 9 12 10.3431 12 12C12 13.6569 13.3431 15 15 15Z" fill="white"/>
</g>
<defs>
<clipPath id="clip0">
<rect width="24" height="24" fill="white"/>
</clipPath>
</defs>
</svg>
