<svg width="263" height="11" viewBox="0 0 263 11" fill="none" xmlns="http://www.w3.org/2000/svg">
<path d="M240.618 0.12396L235.553 10.8782H237.2L238.431 8.1903H244.376L245.607 10.8782H247.286L242.205 0.12396H240.618ZM238.988 6.95998L241.401 1.69126L243.814 6.95998H238.988ZM220.424 0.12396H229.676V1.46138H225.842V10.8782H224.26V1.45877H220.426L220.424 0.12396ZM211.114 0.12396H212.712V10.8782H211.114V0.12396ZM263 9.54079V10.8782H255.346V0.12396H256.943V9.54079H263ZM179.45 0.12396L174.385 10.8782H176.032L177.263 8.1903H183.208L184.439 10.8782H186.116L181.034 0.12396H179.45ZM177.82 6.95998L180.233 1.69126L182.646 6.95998H177.82ZM163.253 0.12396H167.967V1.46138H163.348C162.524 1.44377 161.707 1.61761 160.968 1.96814C160.304 2.28063 159.749 2.77154 159.37 3.38132C158.988 4.0271 158.795 4.75985 158.81 5.5024C158.794 6.24013 158.987 6.96819 159.37 7.6078C159.745 8.22454 160.301 8.72148 160.968 9.03665C161.707 9.38718 162.524 9.56102 163.348 9.54341H167.967V10.8808H163.253C162.162 10.9001 161.082 10.6672 160.104 10.2017C159.218 9.77847 158.48 9.11685 157.979 8.2974C157.458 7.45246 157.192 6.48447 157.212 5.5024C157.194 4.51553 157.459 3.54286 157.979 2.69171C158.484 1.8791 159.221 1.22345 160.104 0.803115C161.082 0.337573 162.162 0.10466 163.253 0.12396ZM202.789 3.8724C202.789 5.03917 202.373 5.95604 201.541 6.62301C200.71 7.28998 199.57 7.62259 198.12 7.62085H195.354V10.8782H193.757V2.80664H195.354V6.28343H198.072C199.084 6.28343 199.857 6.07881 200.389 5.66957C200.658 5.44985 200.87 5.17319 201.009 4.86134C201.147 4.54949 201.209 4.21096 201.188 3.8724C201.21 3.53602 201.149 3.19947 201.01 2.88998C200.871 2.58049 200.659 2.30676 200.389 2.09092C199.857 1.67123 199.084 1.46138 198.072 1.46138H193.757V0.12396H198.12C199.57 0.12396 200.71 0.456569 201.541 1.1218C202.373 1.78703 202.789 2.7039 202.789 3.8724ZM28.1571 0.722138C27.2181 0.247825 26.1732 0 25.1124 0C24.0517 0 23.0068 0.247825 22.0678 0.722138C21.1801 1.17691 20.4395 1.85731 19.9266 2.68909C19.424 3.54708 19.16 4.51512 19.16 5.49978C19.16 6.48444 19.424 7.45248 19.9266 8.31047C20.4418 9.14447 21.1815 9.82941 22.0678 10.2931C23.0099 10.7577 24.0536 11 25.1124 11C26.1713 11 27.215 10.7577 28.1571 10.2931C29.0377 9.83462 29.7721 9.15475 30.282 8.32614C30.7984 7.4679 31.0632 6.49116 31.0483 5.49978C31.0644 4.51323 30.7994 3.54123 30.282 2.68909C29.7782 1.85594 29.0422 1.17468 28.1571 0.722138ZM28.8772 7.62085C28.5111 8.23981 27.9754 8.75032 27.3284 9.09672C26.6557 9.46128 25.8941 9.64702 25.122 9.63483C24.3407 9.64398 23.5703 9.4586 22.8857 9.09672C22.2362 8.74794 21.6958 8.23834 21.3205 7.62085C20.944 6.97315 20.7509 6.24173 20.7608 5.49978C20.7497 4.76266 20.9429 4.03599 21.3205 3.39438C21.6921 2.7701 22.2331 2.25457 22.8857 1.90284C23.5703 1.54107 24.3407 1.3557 25.122 1.36474C25.8941 1.35255 26.6557 1.53828 27.3284 1.90284C27.9785 2.25232 28.5148 2.76874 28.8772 3.39438C29.2649 4.03272 29.4641 4.76067 29.4532 5.49978C29.4627 6.24369 29.2637 6.97633 28.8772 7.62085ZM48.2973 0.722138C47.3583 0.247825 46.3134 0 45.2526 0C44.1919 0 43.147 0.247825 42.208 0.722138C41.3203 1.17691 40.5797 1.85731 40.0668 2.68909C39.5642 3.54708 39.3002 4.51512 39.3002 5.49978C39.3002 6.48444 39.5642 7.45248 40.0668 8.31047C40.582 9.14447 41.3217 9.82941 42.208 10.2931C43.1501 10.7577 44.1937 11 45.2526 11C46.3115 11 47.3551 10.7577 48.2973 10.2931C49.1779 9.83462 49.9123 9.15475 50.4222 8.32614C50.9386 7.4679 51.2034 6.49116 51.1884 5.49978C51.2046 4.51323 50.9396 3.54123 50.4222 2.68909C49.9183 1.85594 49.1824 1.17468 48.2973 0.722138ZM49.0174 7.62085C48.6513 8.23981 48.1156 8.75032 47.4685 9.09672C46.7958 9.46128 46.0343 9.64702 45.2621 9.63483C44.4809 9.64398 43.7105 9.4586 43.0259 9.09672C42.3764 8.74794 41.836 8.23834 41.4607 7.62085C41.0842 6.97315 40.8911 6.24173 40.901 5.49978C40.8899 4.76266 41.0831 4.03599 41.4607 3.39438C41.8323 2.7701 42.3732 2.25457 43.0259 1.90284C43.7105 1.54107 44.4809 1.3557 45.2621 1.36474C46.0343 1.35255 46.7958 1.53828 47.4685 1.90284C48.1187 2.25232 48.655 2.76874 49.0174 3.39438C49.4051 4.03272 49.6043 4.76067 49.5934 5.49978C49.602 6.24393 49.4021 6.97659 49.0146 7.62085H49.0174ZM101.012 0.12396H102.609V10.8782H101.012V0.12396ZM113.91 9.54079H119.967V10.8782H112.313V0.12396H113.91V9.54079ZM135.458 9.54079V10.8782H127.801V0.12396H129.399V9.54079H135.458ZM6.0415 0.12396H11.3782V1.46138H6.1366C5.31232 1.44377 4.49578 1.61761 3.7563 1.96814C3.09267 2.28063 2.53765 2.77154 2.15856 3.38132C1.77698 4.0271 1.5836 4.75985 1.59881 5.5024C1.5822 6.24013 1.77576 6.96819 2.15856 7.6078C2.53368 8.22454 3.08935 8.72148 3.7563 9.03665C4.49578 9.38718 5.31232 9.56102 6.1366 9.54341H9.76683V5.49978H11.3646V10.8756H6.0415C4.95076 10.8965 3.87073 10.6654 2.89222 10.2017C2.00679 9.77847 1.26851 9.11685 0.767334 8.2974C0.246273 7.45246 -0.0191073 6.48447 0.00107068 5.5024C-0.0177087 4.51553 0.247467 3.54286 0.767334 2.69171C1.27149 1.87717 2.00925 1.21964 2.89222 0.797893C3.87073 0.334157 4.95076 0.103038 6.0415 0.12396ZM69.4266 2.70477C69.9476 3.54971 70.213 4.51771 70.1928 5.49978C70.2116 6.48664 69.9464 7.45932 69.4266 8.31047C68.9216 9.12307 68.1839 9.77872 67.3017 10.1991C66.3234 10.6637 65.2434 10.8957 64.1524 10.8756H58.8157V9.53818H64.0573C64.8816 9.55579 65.6981 9.38195 66.4376 9.03142C67.1012 8.71894 67.6562 8.22802 68.0353 7.61824C68.4164 6.97323 68.6098 6.24145 68.5951 5.49978C68.6117 4.76204 68.4181 4.03398 68.0353 3.39438C67.6602 2.77764 67.1045 2.2807 66.4376 1.96553C65.6981 1.615 64.8816 1.44116 64.0573 1.45877H60.4162V8.20337H58.8185V0.12396H64.1551C65.2449 0.103457 66.324 0.334565 67.3017 0.797893C68.1875 1.22179 68.9258 1.88436 69.4266 2.70477ZM91.2134 0.139632H93.1345L89.3303 10.8782H87.7924L85.1594 2.93203L82.5101 10.8782H80.9585L77.1815 0.139632H79.1325L81.7818 8.16419L84.4909 0.12396H85.8713L88.5668 8.16157L91.2134 0.139632Z" fill="#231F20"/>
</svg>
