<svg width="14" height="14" viewBox="0 0 14 14" fill="none" xmlns="http://www.w3.org/2000/svg">
<path d="M6.99935 1.16602C3.79102 1.16602 1.16602 3.79102 1.16602 6.99935C1.16602 10.2077 3.79102 12.8327 6.99935 12.8327C10.2077 12.8327 12.8327 10.2077 12.8327 6.99935C12.8327 3.79102 10.2077 1.16602 6.99935 1.16602ZM6.99935 11.666C4.42685 11.666 2.33268 9.57185 2.33268 6.99935C2.33268 4.42685 4.42685 2.33268 6.99935 2.33268C9.57185 2.33268 11.666 4.42685 11.666 6.99935C11.666 9.57185 9.57185 11.666 6.99935 11.666ZM7.29102 4.08268H6.41602V7.58268L9.44935 9.44935L9.91602 8.69102L7.29102 7.11602V4.08268Z" fill="#6D6E70"/>
</svg>
