<svg width="18" height="18" viewBox="0 0 18 18" fill="none" xmlns="http://www.w3.org/2000/svg">
<path d="M8.99935 0.666016C4.41602 0.666016 0.666016 4.41602 0.666016 8.99935C0.666016 13.5827 4.41602 17.3327 8.99935 17.3327C13.5827 17.3327 17.3327 13.5827 17.3327 8.99935C17.3327 4.41602 13.5827 0.666016 8.99935 0.666016ZM8.99935 15.666C5.32435 15.666 2.33268 12.6743 2.33268 8.99935C2.33268 5.32435 5.32435 2.33268 8.99935 2.33268C12.6743 2.33268 15.666 5.32435 15.666 8.99935C15.666 12.6743 12.6743 15.666 8.99935 15.666ZM9.41602 4.83268H8.16602V9.83268L12.4994 12.4994L13.166 11.416L9.41602 9.16602V4.83268Z" fill="#6D6E70"/>
</svg>
